<svg width="99" height="19" viewBox="0 0 99 19" fill="none" xmlns="http://www.w3.org/2000/svg">
<path d="M14.2801 14.8401H17.3881V18.7881H9.95994e-05V14.8401H7.1681C9.5761 14.8401 11.2001 12.6841 11.2001 9.49212C11.2001 6.52411 9.5761 4.50811 7.1681 4.50811H4.8161V13.8601H0.0560997V0.588115H7.3361C12.4881 0.588115 15.8201 4.03211 15.8201 9.38011C15.8201 11.3401 15.2041 13.5521 14.2801 14.8401ZM27.8078 12.3481V5.06811H32.4558V13.3001C32.4558 14.2801 33.0718 14.8401 34.1638 14.8401V18.7881H33.4638C31.6158 18.7881 30.1318 18.1721 29.4038 17.0801C28.6198 18.1721 26.9118 18.7881 24.6998 18.7881H16.6358V14.8401H18.9598C18.3998 14.0281 18.0638 12.8241 18.0638 11.6761C18.0638 7.75611 20.8358 5.06811 24.8958 5.06811C25.5678 5.06811 26.2958 5.15211 26.8278 5.32011V9.26811C26.3798 9.10012 25.8758 9.01611 25.4278 9.01611C23.8318 9.01611 22.7118 10.2201 22.7118 11.9281C22.7118 13.6361 23.7758 14.8401 25.2598 14.8401C26.7438 14.8401 27.8078 13.8041 27.8078 12.3481ZM35.8445 13.7201V0.000113726H40.4925V13.3001C40.4925 14.2801 41.1085 14.8401 42.2005 14.8401V18.7881H41.5005C38.0565 18.7881 35.8445 16.8001 35.8445 13.7201ZM43.8835 13.7201V0.000113726H48.5315V13.3001C48.5315 14.2801 49.1475 14.8401 50.2395 14.8401V18.7881H49.6795C46.1515 18.7881 43.8835 16.8001 43.8835 13.7201ZM63.1506 14.8401H68.6106V18.7881H50.1866V14.8401H57.4666C57.1866 14.5041 57.0186 13.8601 57.0186 13.3561V11.0041L50.9426 0.588115H56.0386L59.3986 6.63612L62.8146 0.588115H67.8546L61.7786 10.9761V13.3281C61.7786 14.3641 62.1706 14.8401 63.1506 14.8401ZM75.4142 14.8401H83.3382V18.7881H66.5382V14.8401H68.8622C68.3302 14.1961 67.9662 12.9361 67.9662 11.7601C67.9662 7.81211 70.9062 4.98411 75.1062 4.98411C79.1662 4.98411 81.9102 7.70011 81.9102 11.6761C81.9102 12.2641 81.8262 12.8801 81.6302 13.5521H73.9022V10.2481H77.0942C76.9542 9.46411 76.0582 8.84811 75.1062 8.84811C73.6222 8.84811 72.6142 10.0521 72.6142 11.7601C72.6142 13.5521 73.7902 14.8401 75.4142 14.8401ZM91.7351 18.7881H82.9991V14.8401H91.6511C93.1631 14.8401 94.2271 13.6361 94.2271 11.9281C94.2271 10.2201 93.1631 9.01611 91.6511 9.01611C90.1391 9.01611 89.0751 10.2201 89.0751 11.9281C89.0751 12.6001 89.2991 13.3841 89.6351 13.8601H84.9871C84.6511 13.3841 84.4271 12.5721 84.4271 11.8721C84.4271 7.89611 87.4511 5.06811 91.6511 5.06811C95.8511 5.06811 98.8751 7.89611 98.8751 11.8721C98.8751 16.0721 96.0751 18.7881 91.7351 18.7881Z" fill="#13C674"/>
</svg>
