<svg width="22" height="24" viewBox="0 0 22 24" fill="none" xmlns="http://www.w3.org/2000/svg">
<path d="M1.68751 23.9531C0.761726 23.9531 7.62939e-06 23.1914 7.62939e-06 22.2539V2.87109C7.62939e-06 1.80469 0.468758 1.20703 1.3711 0.785156C2.4961 0.269531 3.6211 0 5.25001 0C9.28126 0 12.7617 2.16797 16.6992 2.16797C18.1992 2.16797 19.1719 1.83984 20.0977 1.83984C21.2344 1.83984 21.9844 2.67188 21.9844 3.83203V14.8711C21.9844 15.9961 21.5859 16.875 20.6602 17.3203C19.7109 17.7773 18.4688 18.0938 16.7344 18.0938C12.5977 18.0938 9.32813 15.9258 5.29688 15.9258C4.44141 15.9258 3.78516 16.0781 3.38673 16.1719V22.2539C3.38673 23.2031 2.61329 23.9531 1.68751 23.9531ZM3.58595 9.86719C3.92579 9.65625 4.51173 9.44531 5.39063 9.44531C6.15235 9.44531 6.71485 9.52734 7.14845 9.59766V12.5625C8.4961 12.7266 9.75001 13.0781 10.9688 13.4297V10.5469C12.2227 10.9336 13.4297 11.2383 14.8008 11.4492V14.4141C15.3984 14.5195 15.9844 14.5781 16.5703 14.5781C17.4727 14.5781 18.082 14.3906 18.3984 14.1797V11.3906C17.9766 11.5078 17.5547 11.5781 16.8516 11.5781C16.3945 11.5781 15.6563 11.5664 14.8008 11.4492V8.34375C15.5977 8.47266 16.1836 8.47266 16.5234 8.47266C17.2617 8.47266 17.9297 8.41406 18.3984 8.29688V5.44922C17.8945 5.56641 17.2383 5.61328 16.5234 5.61328C15.9375 5.61328 15.3633 5.56641 14.8008 5.49609V8.34375C13.6992 8.20312 12.1758 7.85156 10.9688 7.45312V4.60547C9.69141 4.23047 8.43751 3.84375 7.14845 3.64453V6.49219C6.53907 6.38672 5.71876 6.33984 5.39063 6.33984C4.51173 6.33984 3.92579 6.55078 3.58595 6.76172V9.86719ZM7.14845 9.59766V6.49219C8.54298 6.73828 9.70313 7.07812 10.9688 7.45312V10.5469C9.63282 10.1602 8.54298 9.82031 7.14845 9.59766Z" fill="currentColor"/>
</svg>
