<svg width="20" height="21" viewBox="0 0 20 21" fill="none" xmlns="http://www.w3.org/2000/svg">
<mask id="mask0_822_4451" style="mask-type:alpha" maskUnits="userSpaceOnUse" x="-4" y="-3" width="26" height="26">
<rect x="-3.06197" y="-2.04131" width="24.4957" height="24.4957" fill="#D9D9D9"/>
</mask>
<g mask="url(#mask0_822_4451)">
<path d="M15.5905 16.6112C16.0838 16.1179 16.3305 15.514 16.3305 14.7995C16.3305 14.085 16.0838 13.4812 15.5905 12.9878C15.0972 12.4945 14.4933 12.2479 13.7788 12.2479C13.0644 12.2479 12.4605 12.4945 11.9672 12.9878C11.4739 13.4812 11.2272 14.085 11.2272 14.7995C11.2272 15.514 11.4739 16.1179 11.9672 16.6112C12.4605 17.1045 13.0644 17.3511 13.7788 17.3511C14.4933 17.3511 15.0972 17.1045 15.5905 16.6112ZM18.9842 21C18.695 21 18.4569 20.9064 18.2697 20.7193L16.2284 18.678C15.8712 18.9162 15.4842 19.0948 15.0674 19.2138C14.6507 19.3329 14.2211 19.3925 13.7788 19.3925C12.503 19.3925 11.4186 18.9459 10.5255 18.0528C9.63244 17.1598 9.1859 16.0753 9.1859 14.7995C9.1859 13.5237 9.63244 12.4392 10.5255 11.5462C11.4186 10.6531 12.503 10.2066 13.7788 10.2066C15.0547 10.2066 16.1391 10.6531 17.0322 11.5462C17.9253 12.4392 18.3718 13.5237 18.3718 14.7995C18.3718 15.2418 18.3123 15.6713 18.1932 16.0881C18.0741 16.5049 17.8955 16.8918 17.6573 17.2491L19.6987 19.2904C19.8858 19.4775 19.9793 19.7157 19.9793 20.0048C19.9793 20.294 19.8858 20.5322 19.6987 20.7193C19.5115 20.9064 19.2734 21 18.9842 21ZM2.04131 20.4131C1.47995 20.4131 0.999392 20.2132 0.599635 19.8135C0.199878 19.4137 0 18.9332 0 18.3718V2.04131C0 1.47995 0.199878 0.999392 0.599635 0.599635C0.999392 0.199878 1.47995 0 2.04131 0H9.36451C9.63669 0 9.89611 0.0510328 10.1428 0.153098C10.3894 0.255164 10.6063 0.399757 10.7934 0.586877L15.7436 5.53706C15.9307 5.72418 16.0753 5.94107 16.1774 6.18772C16.2795 6.43438 16.3305 6.6938 16.3305 6.96597V7.42527C16.3305 7.73147 16.2072 7.97812 15.9605 8.16524C15.7138 8.35236 15.4374 8.4034 15.1312 8.31834C14.9101 8.26731 14.6889 8.22904 14.4678 8.20352C14.2467 8.178 14.017 8.16524 13.7788 8.16524C12.8262 8.16524 11.9374 8.34386 11.1124 8.70109C10.2874 9.05832 9.57715 9.56014 8.98177 10.2066H5.10328C4.81409 10.2066 4.57169 10.3044 4.37606 10.5C4.18043 10.6956 4.08262 10.938 4.08262 11.2272C4.08262 11.5164 4.18043 11.7588 4.37606 11.9544C4.57169 12.1501 4.81409 12.2479 5.10328 12.2479H7.65492C7.51883 12.5711 7.41251 12.9028 7.33596 13.243C7.25941 13.5832 7.20413 13.9319 7.17011 14.2892H5.10328C4.81409 14.2892 4.57169 14.387 4.37606 14.5826C4.18043 14.7782 4.08262 15.0206 4.08262 15.3098C4.08262 15.599 4.18043 15.8414 4.37606 16.0371C4.57169 16.2327 4.81409 16.3305 5.10328 16.3305H7.3232C7.44228 16.8578 7.6209 17.3554 7.85905 17.8232C8.0972 18.291 8.38639 18.7205 8.7266 19.1118C8.96476 19.3669 9.02004 19.6476 8.89246 19.9538C8.76488 20.26 8.54799 20.4131 8.24179 20.4131H2.04131ZM9.1859 2.04131V6.12393C9.1859 6.41312 9.28371 6.65552 9.47934 6.85115C9.67496 7.04678 9.91737 7.14459 10.2066 7.14459H14.2892L9.1859 2.04131Z" fill="currentColor"/>
</g>
</svg>
