<svg width="24" height="30" viewBox="0 0 24 30" fill="none" xmlns="http://www.w3.org/2000/svg">
<path d="M5.30862 0C8.15628 0 10.6172 3.94922 10.6172 7.32422C10.6172 8.77734 10.1485 11.5547 9.07034 13.8633H1.5469C0.468779 11.5547 2.86102e-05 8.77734 2.86102e-05 7.32422C2.86102e-05 3.94922 2.46097 0 5.30862 0ZM20.3555 8.21484C23.0274 9.1875 23.9883 13.7461 22.8282 16.9102C22.336 18.2695 20.9532 20.7188 19.1485 22.5234L12.0703 19.957C11.8477 17.4141 12.3633 14.6367 12.8555 13.2773C14.0157 10.1016 17.6836 7.24219 20.3555 8.21484ZM5.32034 21.9023C3.22268 21.9023 2.06253 19.875 2.06253 17.0508C2.06253 16.8164 2.06253 16.4766 2.09768 15.9258H8.53128C8.56643 16.4766 8.57815 16.8164 8.57815 17.0508C8.57815 19.875 7.40628 21.9023 5.32034 21.9023ZM12.8789 28.793C10.8985 28.0664 10.5 25.7812 11.461 23.1094C11.5547 22.8867 11.6719 22.582 11.8828 22.0781L17.9414 24.2812C17.7774 24.7969 17.6719 25.125 17.5899 25.3477C16.6172 28.0078 14.836 29.5078 12.8789 28.793Z" fill="currentColor"/>
</svg>
