<svg width="24" height="25" viewBox="0 0 24 25" fill="none" xmlns="http://www.w3.org/2000/svg">
<path d="M2.86102e-05 10.1484C2.86102e-05 4.53516 4.53518 0 10.1485 0C15.75 0 20.2969 4.53516 20.2969 10.1484C20.2969 11.9297 19.8164 13.6055 18.9844 15.0469L23.086 19.1484C23.6485 19.7109 23.9063 20.4492 23.9063 21.1992C23.9063 22.8398 22.6758 24.0938 21.0235 24.0938C20.25 24.0938 19.4883 23.8242 18.9375 23.2734L14.7891 19.125C13.4063 19.8633 11.836 20.2852 10.1485 20.2852C4.53518 20.2852 2.86102e-05 15.75 2.86102e-05 10.1484ZM3.83206 10.1484C3.83206 13.6172 6.668 16.4531 10.1485 16.4531C13.6289 16.4531 16.4532 13.6172 16.4532 10.1484C16.4532 6.66797 13.6289 3.83203 10.1485 3.83203C6.668 3.83203 3.83206 6.66797 3.83206 10.1484Z" fill="currentColor"/>
</svg>
